<?xml version="1.0" standalone="no"?><svg xmlns:xlink="http://www.w3.org/1999/xlink" xmlns="http://www.w3.org/2000/svg" viewBox="0 0 1000 333.3333333333333" preserveAspectRatio="xMaxYMax slice"><g transform="scale(1.0515247108307044)"><rect x="0" y="0" width="951" height="317" fill="#334155"/><path d="M 554.75 11.32 A 22.64 22.64 0 0 0 577.39 33.96 L 577.39 11.32" fill="#336063"/><rect x="192.46" y="56.61" width="22.64" height="22.64" fill="#337a70"/><path d="M 600.04 124.53 A 22.64 22.64 0 0 1  622.68 101.89 L 600.04 124.53 A 22.64 22.64 0 0 0 622.68 101.89" fill="#334758"/><path d="M 781.18 101.89 A 22.64 22.64 0 0 0 803.8199999999999 124.53 L 803.8199999999999 101.89" fill="#4c55a8"/><polygon points="237.75,147.18 260.39,147.18 260.39,169.82" fill="#34a081"/><rect x="328.32" y="192.46" width="22.64" height="22.64" fill="#348f79"/><polygon points="373.61,192.46 396.25,192.46 373.61,215.10000000000002" fill="#585dcc"/><path d="M 917.04 192.46 A 22.64 22.64 0 0 0 939.68 215.10000000000002 L 939.68 192.46" fill="#35435c"/><polygon points="554.75,237.75 577.39,237.75 577.39,260.39" fill="#335e62"/><path d="M 781.18 260.39 A 22.64 22.64 0 0 1  803.8199999999999 237.75 L 781.18 260.39 A 22.64 22.64 0 0 0 803.8199999999999 237.75" fill="#434e8a"/></g></svg>